<?xml version="1.0" encoding="UTF-8" standalone="no"?>
<svg
   xmlns:svg="http://www.w3.org/2000/svg"
   xmlns="http://www.w3.org/2000/svg"
   viewBox="0 0 785.90668 593.66669"
   height="593.66669"
   width="785.90668"
   xml:space="preserve"
   version="1.1"><g transform="matrix(1.3333333,0,0,-1.3333333,0,593.66667)">
     <g transform="scale(0.14) translate(-900 -900)">
       <path style="fill:#1b191a;fill-opacity:1;fill-rule:nonzero;stroke:none"
         d="M 3162.25,3519.33 2616.76,1652.94 h -739.72 c -558.44,0 -943.845,345.89 -943.845,962.02 0,695.29 515.235,904.37 943.845,904.37 z m -483.86,-374.75 h -801.35 c -291.81,0 -569.1,-111.6 -569.1,-551.32 0,-378.25 241.25,-565.6 569.1,-565.6 h 446.78 l 354.57,1116.92" />
       <path style="fill:#89339e;fill-opacity:1;fill-rule:nonzero;stroke:none"
         d="m 4298.23,3519.34 c 353.07,0 569.11,-169.33 569.11,-515.24 0,-115.31 -43.18,-248.57 -125.94,-331.51 100.77,-79.25 219.74,-198.05 219.74,-436.01 0,-374.55 -270.3,-583.64 -662.91,-583.64 H 2725.86 l 545.48,1866.4 z m -815.79,-698.91 h 815.79 c 104.45,0 194.58,57.56 194.58,165.66 0,126.16 -93.79,158.5 -194.58,158.5 h -706.68 z m -109.08,-374.77 -136.38,-417.95 h 1061.25 c 162.01,0 288.15,50.4 288.15,212.6 0,176.45 -144.15,205.35 -288.15,205.35 h -924.87" />
     </g>
   </g>
</svg>